<?xml version="1.0" encoding="UTF-8"?>
<svg width="53px" height="44px" viewBox="0 0 53 44" version="1.1" xmlns="http://www.w3.org/2000/svg" xmlns:xlink="http://www.w3.org/1999/xlink">
    <defs></defs>
    <g id="атрибуты" stroke="none" stroke-width="1" fill="none" fill-rule="evenodd">
        <g id="LUX" transform="translate(-123.000000, -29.000000)">
            <path d="M5,4.3020058e-15 L293,4.3020058e-15 L293,0 C295.761424,-5.07243986e-16 298,2.23857625 298,5 L298,151 C298,153.761424 295.761424,156 293,156 L5,156 L5,156 C2.23857625,156 1.62803173e-14,153.761424 0,151 L0,5 C-3.38176876e-16,2.23857625 2.23857625,-3.80934433e-16 5,-8.8817842e-16 L5,4.3020058e-15 Z M195,156 L214.5,156 L205,165.5 L195,156 Z" id="Combined-Shape" fill="#FFFFFF"></path>
            <g id="Group-2" transform="translate(123.000000, 30.000000)" stroke-width="2" stroke="#000000">
                <g id="Group-16">
                    <path d="M39.5691743,16.0036241 C39.5691743,15.2838693 41.4492292,10.8898346 43.194544,7.8676891 C44.9398588,4.84554358 46.5490843,2.98103867 47.5298417,2.04658393 C48.5105991,1.11212918 49.8068673,0.847319538 50.5627761,0.847319538 C51.3186848,0.847319538 51.9522978,0.847319538 51.9522978,1.06444437 C51.9522978,1.20919426 49.4849803,7.29584681 44.5503452,19.324402 L39.0384482,32.9217607 L12.0009431,32.9770382 C4.75989933,34.3342077 1.08728872,35.0127924 0.983111313,35.0127924" id="Path-2"></path>
                    <path d="M22.0108443,19 C22.0108443,19 29.582773,19 44.7266303,19" id="Path-3"></path>
                    <path d="M26,16 L26,19" id="Path-4"></path>
                    <path d="M38.5108421,19 C37.0298989,22.9824634 36.2186387,25.0144227 36.0770615,25.095878 C31.7902417,24.9116432 26.2727372,24.3978815 23.0778221,25.0171895 C19.8829071,25.6364974 17.6215786,26.8831999 17.2258594,27.1090592 C16.8301402,27.3349184 14.9595407,28.8408956 14.0220174,29.7623464 C13.397002,30.3766469 12.725491,31.454404 12.0074845,32.9956177" id="Path-5"></path>
                    <path d="M38.9927044,33.0021568 C39.1581091,38.2290904 39.1581091,40.8956081 38.9927044,41.0017099 C38.7445973,41.1608626 12.1790604,41.1092103 12.0038791,41.0017099 C11.8870916,40.9300429 11.8870916,38.2635252 12.0038791,33.0021568" id="Path-6"></path>
                </g>
            </g>
        </g>
    </g>
</svg>